<?xml version="1.0"?>
<svg xmlns:rdf="http://www.w3.org/1999/02/22-rdf-syntax-ns#" xmlns="http://www.w3.org/2000/svg" xmlns:dc="http://purl.org/dc/elements/1.1/" xmlns:cc="http://web.resource.org/cc/" xmlns:xlink="http://www.w3.org/1999/xlink" xmlns:sodipodi="http://inkscape.sourceforge.net/DTD/sodipodi-0.dtd" xmlns:svg="http://www.w3.org/2000/svg" id="svg1441" style="enable-background:new 93 57.331 421.484 487.379" xml:space="preserve" viewBox="93 57.331 421.484 487.379" sodipodi:version="0.32" version="1.1" y="0px" x="0px" sodipodi:docname="rubiks_cube_simple_ptl.svg" sodipodi:docbase="/home/petri/Desktop/Omat Open ClipArt kuvat">
<sodipodi:namedview id="base" bordercolor="#666666" pagecolor="#ffffff" showgrid="true" borderopacity="1.0" showborder="false" showguides="false">
	</sodipodi:namedview>
<g id="layer1">
	<g id="g11216" transform="matrix(1.0459 0 0 1.0103 -25.117 -5.8226)">
		<path id="rect5005" fill="#FFFFFF" d="m326.77 482.55l43.838-32.73c4.328-3.232 7.837-2.635 7.837 1.332v45.928c0 3.967-3.509 9.803-7.837 13.036l-43.838 32.73c-4.329 3.23-7.838 2.635-7.838-1.334v-45.928c0.01-3.97 3.51-9.81 7.84-13.04z"/>
		<path id="rect5765" fill="#FFFFFF" d="m329.11 407.64l42.143-31.463c4.797-3.582 8.685-2.589 8.685 2.219v42.887c0 4.808-3.888 11.607-8.685 15.189l-42.143 31.464c-4.797 3.58-8.685 2.587-8.685-2.221v-42.887c-0.02-4.8 3.87-11.61 8.67-15.19z"/>
		<path id="rect5767" fill="#FFFFFF" d="m325.51 336.15l49.343-36.84c2.809-2.098 5.084 2.043 5.084 9.249v34.205c0 7.205-2.275 14.745-5.084 16.84l-49.343 36.842c-2.809 2.096-5.084-2.045-5.084-9.249v-34.2c-0.01-7.21 2.27-14.75 5.08-16.84z"/>
		<path id="rect5769" fill="#FFFFFF" d="m396.33 282.84l44.234-32.759c4.354-3.223 7.883-0.785 7.883 5.446v37.731c0 6.231-3.529 13.896-7.883 17.119l-44.234 32.759c-4.354 3.223-7.883 0.785-7.883-5.446v-37.731c0-6.24 3.53-13.9 7.88-17.12z"/>
		<path id="rect5771" fill="#FFFFFF" d="m394.64 357.82l47.624-35.268c3.417-2.531 6.188 1.45 6.188 8.893v33.345c0 7.443-2.77 15.528-6.188 18.058l-47.624 35.268c-3.417 2.531-6.188-1.452-6.188-8.895v-33.345c0-7.45 2.77-15.53 6.19-18.06z"/>
		<path id="rect5773" fill="#FFFFFF" d="m395.69 429.94l42.541-31.504c4.821-3.571 8.729 0.06 8.729 8.108v31.152c0 8.048-3.909 17.465-8.729 21.036l-42.541 31.504c-4.822 3.569-8.73-0.06-8.73-8.108v-31.152c0-8.06 3.91-17.47 8.73-21.04z"/>
		<path id="rect5775" fill="#FFFFFF" d="m462.84 377.56l44.234-32.757c4.354-3.225 7.883-0.771 7.883 5.477v37.665c0 6.25-3.529 13.929-7.883 17.154l-44.234 32.757c-4.354 3.225-7.883 0.771-7.883-5.479v-37.663c0-6.24 3.53-13.92 7.88-17.15z"/>
		<path id="rect5777" fill="#FFFFFF" d="m462.97 308.65l45.93-34.013c3.885-2.877 7.035-0.043 7.035 6.331v37.213c0 6.374-3.149 13.875-7.035 16.752l-45.93 34.013c-3.885 2.877-7.035 0.041-7.035-6.333v-37.213c-0.01-6.38 3.14-13.88 7.03-16.75z"/>
		<path id="rect5779" fill="#FFFFFF" d="m462.97 234.19l45.93-34.011c3.885-2.877 7.035-1.904 7.035 2.173v45.53c0 4.077-3.149 9.715-7.035 12.593l-45.93 34.011c-3.885 2.879-7.035 1.904-7.035-2.171v-45.532c-0.01-4.07 3.14-9.71 7.03-12.59z"/>
		<path id="rect8055" fill="#0D47A0" d="m255.98 451.21l44.436 30.897c4.163 2.894 7.538 10.967 7.538 18.031v34.713c0 7.064-3.374 10.445-7.538 7.551l-44.436-30.897c-4.163-2.896-7.538-10.969-7.538-18.033v-34.71c0.01-7.06 3.38-10.45 7.54-7.55z"/>
		<path id="rect8815" fill="#0D47A0" d="m256.98 376.54l44.436 30.897c4.164 2.894 7.538 8.239 7.538 11.94v46.898c0 3.7-3.374 4.352-7.538 1.458l-44.436-30.897c-4.163-2.894-7.538-8.239-7.538-11.94v-46.898c0.01-3.71 3.38-4.36 7.54-1.46z"/>
		<path id="rect8817" fill="#42A5F5" d="m256.98 305.21l44.436 30.897c4.164 2.894 7.538 9.138 7.538 13.944v42.887c0 4.808-3.374 6.358-7.538 3.464l-44.436-30.897c-4.163-2.894-7.538-9.138-7.538-13.946v-42.887c0.01-4.79 3.38-6.34 7.54-3.45z"/>
		<path id="rect8819" fill="#FFFFFF" d="m188.98 404.53l44.436 30.897c4.163 2.896 7.538 10.188 7.538 16.291v38.195c0 6.103-3.375 8.703-7.538 5.809l-44.436-30.897c-4.163-2.894-7.538-10.188-7.538-16.291v-38.195c0.01-6.1 3.38-8.7 7.54-5.81z"/>
		<path id="rect8821" fill="#42A5F5" d="m188.98 331.54l44.436 30.897c4.163 2.894 7.538 10.544 7.538 17.086v36.604c0 6.542-3.375 9.5-7.538 6.606l-44.436-30.897c-4.163-2.894-7.538-10.546-7.538-17.088v-36.604c0.01-6.55 3.38-9.51 7.54-6.61z"/>
		<path id="rect8823" fill="#42A5F5" d="m189.47 261.21l44.437 30.897c4.163 2.894 7.538 9.494 7.538 14.741v41.296c0 5.247-3.375 7.153-7.538 4.259l-44.437-30.897c-4.163-2.894-7.538-9.494-7.538-14.741v-41.296c0.01-5.25 3.38-7.15 7.54-4.26z"/>
		<path id="rect8825" fill="#FFFFFF" d="m120.47 357.21l44.436 30.897c4.163 2.894 7.538 8.866 7.538 13.339v44.097c0 4.474-3.375 5.753-7.538 2.859l-44.436-30.897c-4.163-2.896-7.538-8.868-7.538-13.341v-44.097c0.01-4.48 3.38-5.76 7.54-2.86z"/>
		<path id="rect8827" fill="#FFFFFF" d="m121.47 287.21l44.436 30.897c4.163 2.894 7.538 8.715 7.538 13.001v44.776c0 4.286-3.375 5.413-7.538 2.519l-44.436-30.897c-4.163-2.894-7.538-8.715-7.538-13.001v-44.778c0.01-4.29 3.38-5.41 7.54-2.52z"/>
		<path id="rect8829" fill="#6CB7F7" d="m121.47 215.21l44.436 30.897c4.163 2.894 7.538 8.317 7.538 12.11v46.556c0 3.795-3.375 4.524-7.538 1.63l-44.436-30.897c-4.163-2.894-7.538-8.317-7.538-12.112v-46.556c0.01-3.8 3.38-4.52 7.54-1.63z"/>
		<g id="g11205" fill="#FFFFFF" transform="matrix(.96731 .65485 -.93303 .67891 326.71 -16.808)">
			<path id="rect10429" fill="#6CB7F7" d="m52.12 210.56l50.484-0.704c2.493-0.035 4.513 4.067 4.513 9.164v41.84c0 5.097-2.021 9.256-4.514 9.291l-50.484 0.705c-2.493 0.035-4.513-4.067-4.513-9.164v-41.84c0.003-5.1 2.024-9.26 4.517-9.3z"/>
			<path id="rect11189" fill="#6CB7F7" d="m122.12 210.99l50.483-0.706c2.494-0.034 4.514 4.069 4.515 9.165v41.839c0 5.097-2.021 9.256-4.514 9.291l-50.484 0.705c-2.493 0.035-4.513-4.067-4.513-9.164v-41.84c-0.01-5.09 2.01-9.25 4.5-9.29z"/>
			<path id="rect11191" d="m192.61 209.99l50.484-0.705c2.493-0.035 4.514 4.069 4.514 9.164l0.001 41.841c-0.001 5.096-2.021 9.256-4.515 9.29l-50.483 0.707c-2.494 0.034-4.514-4.069-4.515-9.166v-41.839c0.01-5.08 2.04-9.24 4.53-9.28z"/>
			<path id="rect11193" fill="#6CB7F7" d="m52.608 137.99l50.484-0.705c2.493-0.034 4.514 4.069 4.514 9.165l0.001 41.841c-0.001 5.095-2.022 9.255-4.515 9.29l-50.483 0.706c-2.493 0.034-4.514-4.069-4.514-9.165v-41.84c0.011-5.09 2.032-9.25 4.525-9.29z"/>
			<path id="rect11195" d="m122.12 136.99l50.483-0.706c2.494-0.034 4.514 4.069 4.515 9.166v41.839c0 5.097-2.021 9.256-4.514 9.292l-50.484 0.705c-2.493 0.035-4.514-4.069-4.513-9.164l-0.001-41.841c-0.01-5.09 2.01-9.25 4.5-9.29z"/>
			<path id="rect11197" d="m194.12 135.99l50.484-0.705c2.493-0.035 4.514 4.069 4.513 9.164l0.001 41.841c-0.001 5.096-2.021 9.256-4.515 9.29l-50.483 0.706c-2.494 0.033-4.514-4.069-4.514-9.166v-41.839c0-5.08 2.02-9.24 4.51-9.28z"/>
			<path id="rect11199" fill="#6CB7F7" d="m52.608 67.041l50.484-0.705c2.493-0.035 4.514 4.068 4.514 9.165v41.84c0 5.096-2.021 9.256-4.514 9.291l-50.484 0.705c-2.493 0.035-4.514-4.068-4.514-9.165v-41.84c0.002-5.105 2.023-9.264 4.516-9.299z"/>
			<path id="rect11201" d="m123.12 64.992l50.483-0.705c2.493-0.035 4.514 4.069 4.514 9.165v41.84c0 5.097-2.021 9.256-4.514 9.292l-50.484 0.705c-2.493 0.034-4.514-4.069-4.514-9.165v-41.84c0-5.094 2.02-9.253 4.51-9.288z"/>
			<path id="rect11203" d="m194.12 64.991l50.484-0.706c2.492-0.035 4.514 4.069 4.514 9.166v41.839c0 5.097-2.021 9.256-4.514 9.292l-50.484 0.705c-2.493 0.035-4.514-4.069-4.515-9.165l0.001-41.839c0.01-5.095 2.03-9.255 4.52-9.29z"/>
		</g>
	</g>
</g>
<metadata><rdf:RDF><cc:Work><dc:format>image/svg+xml</dc:format><dc:type rdf:resource="http://purl.org/dc/dcmitype/StillImage"/><cc:license rdf:resource="http://creativecommons.org/licenses/publicdomain/"/><dc:publisher><cc:Agent rdf:about="http://openclipart.org/"><dc:title>Openclipart</dc:title></cc:Agent></dc:publisher><dc:title>rubik's cube simple petr 01</dc:title><dc:date>2010-04-17T22:06:30</dc:date><dc:description>originally uploaded by Petri Lummemaki from OCAL 0.18</dc:description><dc:source>http://openclipart.org/detail/48721/rubik-s-cube-simple-petr-01-by-anonymous</dc:source><dc:creator><cc:Agent><dc:title>Anonymous</dc:title></cc:Agent></dc:creator><dc:subject><rdf:Bag><rdf:li>clip art</rdf:li><rdf:li>clipart</rdf:li><rdf:li>cube</rdf:li><rdf:li>game</rdf:li><rdf:li>rubik</rdf:li><rdf:li>toy</rdf:li></rdf:Bag></dc:subject></cc:Work><cc:License rdf:about="http://creativecommons.org/licenses/publicdomain/"><cc:permits rdf:resource="http://creativecommons.org/ns#Reproduction"/><cc:permits rdf:resource="http://creativecommons.org/ns#Distribution"/><cc:permits rdf:resource="http://creativecommons.org/ns#DerivativeWorks"/></cc:License></rdf:RDF></metadata></svg>
