<?xml version="1.0" standalone="no"?>
<!DOCTYPE svg PUBLIC "-//W3C//DTD SVG 20010904//EN"
 "http://www.w3.org/TR/2001/REC-SVG-20010904/DTD/svg10.dtd">
<svg version="1.0" xmlns="http://www.w3.org/2000/svg"
 width="487.000000pt" height="487.000000pt" viewBox="0 0 487.000000 487.000000"
 preserveAspectRatio="xMidYMid meet">
<metadata>
Created by potrace 1.14, written by Peter Selinger 2001-2017
</metadata>
<g transform="translate(0.000000,487.000000) scale(0.100000,-0.100000)"
fill="#000000" stroke="none">
<path d="M2338 4846 c-38 -21 -393 -268 -461 -322 -57 -46 -48 -57 143 -181
96 -62 182 -116 190 -120 8 -4 48 -29 90 -57 113 -75 118 -74 349 88 78 56
171 120 205 143 68 47 116 96 116 118 0 7 -62 53 -137 100 -76 47 -181 114
-233 147 -186 119 -193 121 -262 84z"/>
<path d="M3098 4406 c-44 -16 -460 -304 -500 -347 -15 -16 -25 -35 -22 -43 3
-8 48 -41 99 -75 145 -93 383 -244 416 -264 31 -18 73 -16 113 5 37 19 438
302 468 330 47 44 39 57 -79 133 -309 197 -436 275 -447 275 -6 -1 -28 -7 -48
-14z"/>
<path d="M1663 4370 c-37 -15 -482 -331 -498 -353 -8 -12 -15 -27 -15 -33 0
-19 532 -354 562 -354 38 0 75 18 174 88 49 35 153 108 232 164 136 96 177
137 155 159 -5 5 -125 83 -268 174 -265 168 -286 178 -342 155z"/>
<path d="M3815 3937 c-40 -13 -479 -322 -505 -354 -11 -14 -20 -30 -20 -35 0
-8 52 -43 293 -197 48 -31 118 -76 155 -100 82 -53 113 -63 155 -49 26 9 318
204 364 243 7 5 41 30 77 55 70 49 90 72 81 98 -3 9 -51 45 -108 80 -56 35
-136 85 -177 112 -162 105 -245 153 -264 155 -12 1 -34 -2 -51 -8z"/>
<path d="M2371 3915 c-18 -8 -59 -33 -90 -56 -58 -42 -212 -150 -325 -229 -62
-43 -103 -91 -92 -108 5 -8 325 -214 471 -303 110 -67 95 -72 410 149 189 133
245 180 245 206 0 20 -530 356 -561 356 -13 -1 -39 -7 -58 -15z"/>
<path d="M939 3868 c-65 -33 -478 -328 -489 -349 -6 -10 -10 -24 -10 -31 0 -7
120 -89 267 -182 291 -185 299 -188 370 -146 110 65 465 325 478 350 15 28 14
30 -18 53 -31 23 -388 251 -424 272 -10 6 -35 20 -54 33 -20 12 -45 22 -56 22
-11 0 -39 -10 -64 -22z"/>
<path d="M4495 3491 c-19 -6 -75 -39 -85 -51 -3 -4 -105 -77 -227 -164 -153
-108 -230 -170 -245 -195 -22 -35 -23 -44 -24 -289 -1 -312 -2 -311 98 -244
105 70 430 305 465 335 59 52 63 72 63 347 0 261 -2 274 -45 261z"/>
<path d="M3109 3447 c-47 -21 -481 -331 -496 -354 -9 -13 -13 -29 -10 -36 4
-11 99 -75 232 -157 14 -8 88 -55 165 -104 194 -122 145 -136 543 146 175 125
205 157 170 184 -10 7 -131 85 -269 174 -260 166 -277 173 -335 147z"/>
<path d="M1674 3415 c-22 -6 -72 -34 -110 -60 -255 -178 -405 -288 -414 -304
-15 -29 -5 -42 63 -85 34 -21 85 -53 112 -71 273 -175 357 -225 380 -225 40 0
87 28 311 186 213 150 257 187 252 213 -3 13 -430 294 -518 340 -30 16 -40 17
-76 6z"/>
<path d="M355 3337 c-14 -11 -16 -40 -13 -272 3 -254 4 -261 26 -293 24 -33
489 -355 543 -375 51 -20 52 -12 52 267 -1 239 -2 258 -21 288 -12 18 -30 41
-42 51 -31 26 -492 333 -512 340 -9 3 -23 0 -33 -6z"/>
<path d="M3695 2935 c-44 -31 -87 -61 -95 -68 -8 -7 -69 -50 -135 -97 -66 -46
-126 -89 -134 -95 -47 -34 -98 -96 -109 -132 -8 -26 -12 -117 -12 -265 0 -206
2 -226 19 -242 11 -10 25 -14 37 -10 15 6 188 124 229 157 6 4 69 50 142 102
199 143 200 145 198 456 -1 284 -4 288 -140 194z"/>
<path d="M2398 2957 c-47 -11 -509 -335 -525 -368 -10 -20 -10 -27 5 -41 33
-32 526 -338 544 -338 35 0 133 50 185 95 6 6 89 64 183 130 179 124 211 155
194 183 -10 15 -347 236 -411 269 -18 9 -33 20 -33 25 0 4 -5 8 -11 8 -6 0
-23 8 -37 18 -39 27 -53 30 -94 19z"/>
<path d="M1066 2861 c-15 -16 -17 -46 -16 -256 1 -258 6 -280 62 -332 43 -40
502 -343 519 -343 37 0 40 22 40 267 1 135 -3 249 -9 264 -17 44 -61 87 -148
146 -47 32 -93 63 -102 68 -9 6 -66 44 -127 85 -117 80 -182 120 -194 120 -5
0 -15 -8 -25 -19z"/>
<path d="M4430 2702 c-170 -119 -457 -328 -467 -342 -43 -54 -47 -78 -49 -310
-3 -243 3 -280 41 -280 29 0 507 341 539 384 41 55 46 89 46 320 0 184 -3 225
-16 244 -21 30 -30 28 -94 -16z"/>
<path d="M351 2606 c-9 -10 -11 -85 -9 -269 l3 -255 26 -36 c27 -37 503 -367
546 -378 42 -11 45 8 45 260 1 263 -4 291 -55 339 -29 28 -453 315 -504 342
-28 14 -38 14 -52 -3z"/>
<path d="M2830 2310 c-129 -93 -250 -182 -268 -197 -54 -45 -64 -92 -64 -298
0 -282 0 -281 20 -305 l17 -21 240 172 c132 94 257 185 277 201 59 46 66 85
67 346 0 228 -6 272 -38 272 -9 -1 -122 -77 -251 -170z"/>
<path d="M1774 2426 c-16 -13 -18 -33 -19 -242 -1 -246 6 -297 47 -341 13 -14
137 -102 277 -195 237 -158 255 -168 275 -155 21 14 21 20 21 263 0 244 0 250
-24 291 -20 34 -65 69 -260 201 -284 191 -292 196 -317 178z"/>
<path d="M3739 2222 c-21 -15 -45 -33 -55 -40 -11 -7 -111 -79 -224 -160 -166
-119 -209 -155 -225 -187 -18 -36 -20 -64 -23 -259 -4 -241 0 -281 27 -296 15
-8 33 1 92 43 41 29 84 59 96 67 148 102 355 256 367 275 33 50 41 118 41 331
-1 265 -12 289 -96 226z"/>
<path d="M1063 2148 c-16 -18 -18 -40 -17 -253 0 -220 2 -235 23 -275 12 -23
28 -48 34 -55 20 -19 505 -345 514 -345 4 0 17 7 28 16 19 14 20 27 20 257 l0
242 -27 47 c-24 40 -60 68 -267 207 -132 89 -251 165 -264 170 -20 8 -29 6
-44 -11z"/>
<path d="M4470 2032 c-8 -3 -46 -28 -85 -56 -38 -28 -80 -58 -92 -66 -11 -8
-74 -53 -140 -99 -258 -183 -247 -162 -249 -475 l-2 -229 24 -24 24 -24 98 68
c401 279 452 322 471 397 14 55 15 460 1 485 -11 22 -29 30 -50 23z"/>
<path d="M343 1899 c-10 -10 -13 -75 -13 -256 0 -265 4 -286 56 -334 39 -36
493 -341 516 -347 45 -11 48 5 48 265 0 255 -3 279 -47 329 -26 29 -503 347
-528 351 -11 3 -26 -1 -32 -8z"/>
<path d="M3042 1710 c-71 -44 -469 -334 -490 -358 -51 -58 -54 -80 -54 -334
-1 -167 3 -242 11 -252 23 -28 46 -14 376 225 167 120 189 140 215 194 18 38
20 62 20 276 0 129 -4 240 -9 248 -14 21 -35 21 -69 1z"/>
<path d="M1762 1703 c-5 -10 -8 -132 -7 -271 l2 -252 30 -38 c27 -34 456 -333
530 -370 59 -28 60 -22 61 258 1 327 20 290 -254 477 -115 79 -216 146 -224
150 -8 4 -28 16 -45 28 -44 32 -82 39 -93 18z"/>
<path d="M3520 1330 c-124 -89 -237 -173 -252 -187 -15 -14 -37 -48 -50 -77
-22 -48 -23 -62 -23 -267 0 -199 2 -219 19 -238 11 -12 27 -21 36 -21 13 0
207 129 246 165 7 5 66 48 132 95 128 90 163 131 181 210 15 66 14 419 -2 450
-26 51 -48 41 -287 -130z"/>
<path d="M1057 1402 c-19 -46 -14 -465 6 -512 22 -51 48 -72 310 -248 161
-109 244 -158 256 -155 36 9 41 48 39 283 -3 208 -5 228 -25 265 -11 22 -32
49 -45 61 -44 40 -476 323 -502 330 -22 5 -28 2 -39 -24z"/>
<path d="M3037 969 c-42 -24 -465 -333 -496 -362 -56 -52 -58 -68 -59 -334 0
-269 3 -287 53 -265 28 13 416 289 492 349 73 60 77 75 78 348 0 132 -3 248
-7 258 -10 19 -34 22 -61 6z"/>
<path d="M1762 932 c-15 -23 -17 -53 -16 -247 0 -202 2 -224 22 -265 11 -25
27 -52 34 -61 23 -28 497 -339 517 -339 41 0 46 22 48 244 2 235 -6 288 -54
343 -32 36 -484 342 -514 348 -12 3 -25 -5 -37 -23z"/>
</g>
</svg>
