<?xml version="1.0" standalone="no"?>
<!DOCTYPE svg PUBLIC "-//W3C//DTD SVG 20010904//EN"
 "http://www.w3.org/TR/2001/REC-SVG-20010904/DTD/svg10.dtd">
<svg version="1.0" xmlns="http://www.w3.org/2000/svg"
 width="512.000000pt" height="512.000000pt" viewBox="0 0 512.000000 512.000000"
 preserveAspectRatio="xMidYMid meet">
<metadata>
Created by potrace 1.14, written by Peter Selinger 2001-2017
</metadata>
<g transform="translate(0.000000,512.000000) scale(0.100000,-0.100000)"
fill="#000000" stroke="none">
<path d="M2533 5106 c-182 -45 -341 -197 -388 -371 -5 -16 -9 -33 -10 -37 -2
-5 -3 -19 -4 -32 -1 -17 -9 -26 -28 -31 -66 -16 -235 -89 -318 -136 -332 -191
-559 -469 -709 -872 -36 -97 -80 -248 -91 -317 -11 -69 -14 -86 -22 -145 -9
-73 -9 -332 0 -435 16 -176 71 -421 154 -690 46 -149 153 -513 158 -540 2 -8
15 -62 30 -120 15 -58 29 -113 31 -123 2 -10 5 -26 8 -35 3 -9 8 -28 10 -42 3
-14 10 -45 17 -70 11 -44 14 -203 5 -219 -3 -5 -49 -8 -103 -9 -54 0 -104 -1
-110 -1 -10 -1 -13 -42 -13 -169 l0 -167 -67 1 c-38 0 -74 -1 -80 -4 -10 -3
-13 -67 -13 -273 l0 -269 1365 0 1365 0 0 275 0 275 -70 0 c-38 0 -70 3 -71 8
0 4 -1 79 -2 167 l-2 160 -65 0 -65 0 3 40 c10 143 4 356 -12 425 -68 303
-272 668 -561 1005 -104 121 -154 176 -312 339 l-134 138 58 -8 c153 -21 295
-4 483 58 176 58 254 40 395 -90 156 -145 304 -193 473 -154 146 33 241 100
297 212 47 94 56 149 40 235 -6 33 -8 71 -4 85 16 56 10 115 -16 152 -14 20
-105 103 -203 184 -97 82 -182 153 -188 159 -6 5 -44 39 -85 75 -164 144 -188
169 -327 346 -92 118 -150 156 -352 235 -118 46 -139 67 -150 151 -12 99 -34
123 -142 149 l-48 11 -1 57 c0 31 -1 139 -2 241 l-2 185 -35 2 c-19 1 -59 -4
-87 -11z"/>
</g>
</svg>
